<svg xmlns="http://www.w3.org/2000/svg" width="1280" height="720" viewBox="0 0 1280 720" role="img" aria-label="Ending: Char Trench">
  <defs>
    <linearGradient id="bg" x1="0" y1="0" x2="1" y2="1">
      <stop offset="0%" stop-color="#2d2017"/>
      <stop offset="100%" stop-color="#8b4f2d"/>
    </linearGradient>
    <radialGradient id="haze" cx="0.18" cy="0.1" r="1">
      <stop offset="0%" stop-color="#f7f3e8" stop-opacity="0.22"/>
      <stop offset="100%" stop-color="#f7f3e8" stop-opacity="0"/>
    </radialGradient>
    <pattern id="scan" width="8" height="8" patternUnits="userSpaceOnUse">
      <path d="M0 4H8" stroke="#f5ecdc" stroke-opacity="0.05"/>
    </pattern>
  </defs>
  <rect width="1280" height="720" fill="url(#bg)"/>
  <rect width="1280" height="720" fill="url(#scan)"/>
  <ellipse cx="190" cy="120" rx="360" ry="250" fill="url(#haze)"/>
  <g fill="none" stroke="#efe3d0" stroke-opacity="0.45" stroke-width="3"><path d="M800 530h380"/><path d="M835 530l25-70 30 70 34-90 36 90 32-70 24 70"/><path d="M880 430q20-40 40 0M970 420q20-35 40 0"/></g>
  <rect x="48" y="560" width="1184" height="120" rx="16" fill="#0a1319" fill-opacity="0.36" stroke="#f2e8d6" stroke-opacity="0.2"/>
  <text x="80" y="623" font-family="Cormorant Garamond, serif" font-size="54" fill="#f6ecdd">Ending: Char Trench</text>
  <text x="82" y="658" font-family="IBM Plex Mono, monospace" font-size="20" letter-spacing="2" fill="#e4d8c6">Ignition trench / cull smoke</text>
</svg>
